/* XPM */
static char *_f764d0b74024cfed3527cfbb8b128a3ZwEbcVsewWkL9hmN[] = {
/* columns rows colors chars-per-pixel */
"100 100 26 1 ",
"  c #679E32",
". c #689F32",
"X c #6AA333",
"o c #6BA434",
"O c #6DA735",
"+ c #6DA835",
"@ c #70AB36",
"# c #70AC36",
"$ c #73B038",
"% c #74B138",
"& c #77B639",
"* c #78B73A",
"= c #79B93B",
"- c #7BBC3C",
"; c #7DBF3D",
": c #7FC13D",
"> c #80C33E",
", c #81C53F",
"< c #83C83F",
"1 c #84C940",
"2 c #86CC41",
"3 c #88CF42",
"4 c #8AD243",
"5 c #8BD443",
"6 c #8CD543",
"7 c #8DD644",
/* pixels */
"         $$$+      $$$         @$$%------      $$$   +------111111----------$$$$$$                  ",
"         $$$+      $$$         @$$%------      $$$   +------111111----------$$$$$$                  ",
"         $$$+      $$$         @$$%------      $$$   +------111111----------$$$$$$                  ",
"      1111111111   $$$---------O         777$$$   -------111------          $$$      111111-------  ",
"      1111111111   $$$---------O         777$$$   -------111------          $$$      111111-------  ",
"      1111111111   $$$---------O         777$$$   -------111------          $$$      111111-------  ",
"---      111&   111111111111$$$X  X---------   $$$1111111$$$111   $$$----------   ------1116772-----",
"---      111&   111111111111$$$X  X---------   $$$1111111$$$111   $$$----------   ------1116772-----",
"---      111&   111111111111$$$X  X---------   $$$1111111$$$111   $$$----------   ------1116772-----",
"---111$$$$$$+      111111---------=   -------------------111111                $$$   ---------:111  ",
"---111$$$$$$+      111111---------=   -------------------111111                $$$   ---------:111  ",
"---111$$$$$$+      111111---------=   -------------------111111                $$$   ---------:111  ",
"---111$$$OOOX      111111---------=   -------------------111111                $$$   ---------:111  ",
"---111$$$    ---------------777#  X---$$$111111-----------------------------777$$$$$$   $$$   X$$$  ",
"---111$$$    ---------------777#  X---$$$111111-----------------------------777$$$$$$   $$$   X$$$  ",
"---111$$$    ---------------777#  X---$$$111111-----------------------------777$$$$$$   $$$   X$$$  ",
"777   111----111111------------,111111---------1111111111111111111----------------   $$$   #$$$$$$  ",
"777   111----111111------------,111111---------1111111111111111111----------------   $$$   #$$$$$$  ",
"777   111----111111------------,111111---------1111111111111111111----------------   $$$   #$$$$$$  ",
"   $$$----------111111111   111+  X111111111111      +------777111111----------------111111X      $$",
"   $$$----------111111111   111+  X111111111111      +------777111111----------------111111X      $$",
"   $$$----------111111111   111+  X111111111111      +------777111111----------------111111X      $$",
"   $$$1111111---------   ---   &------111777   1111111111111111111   $$$=---111111------------=$$$  ",
"   $$$1111111---------   ---   &------111777   1111111111111111111   $$$=---111111------------=$$$  ",
"   $$$1111111---------   ---   &------111777   1111111111111111111   $$$=---111111------------=$$$  ",
"$$$$$$$$$1111111111111---111111;---------------111---$   111111   111111:------------------.  X$$$--",
"$$$$$$$$$1111111111111---111111;---------------111---$   111111   111111:------------------.  X$$$--",
"$$$$$$$$$1111111111111---111111;---------------111---$   111111   111111:------------------.  X$$$--",
"      $$$1111$$$   111111   ----------------------   +---$$$---1111111111111------      $$$   O---77",
"      $$$1111$$$   111111   ----------------------   +---$$$---1111111111111------      $$$   O---77",
"      $$$1111$$$   111111   ----------------------   +---$$$---1111111111111------      $$$   O---77",
"&&&&&&222++++===<<<;;;+++@@@OOOOOOO%%%OOO,,,,,,,,,;;;;---===---;;;;;;;;;;;;;OOO%%%@@@   ===&&&-333::",
"------777    ---777---   $$$      X$$$   111111111111,----------------------   $$$$$$   ------,777--",
"------777    ---777---   $$$      X$$$   111111111111,----------------------   $$$$$$   ------,777--",
"===---333    ===333===   $$$XXX   .###   ,,,>>>,,,>>>:;;;===================   ###$$$XXX---;;;,777--",
"   ---                   $$$$$$X         $$$   $$$   %777   $$$      $$$X         $$$------5777777--",
"   ---                   $$$$$$X         $$$   $$$   %777   $$$      $$$X         $$$------5777777--",
"   ---                   $$$$$$X         $$$   $$$   %777   $$$      $$$X         $$$------5777777--",
"                         ------3774------777---   $$$+   ---   $$$   777,---------------------,777--",
"                         ------3774------777---   $$$+   ---   $$$   777,---------------------,777--",
"                         ------3774------777---   $$$+   ---   $$$   777,---------------------,777--",
"   $$$1111111---------   ---   &------111777   1111111111111111111   $$$=---111111------------=$$$  ",
"   $$$1111111---------   ---   &------111777   1111111111111111111   $$$=---111111------------=$$$  ",
"   $$$1111111---------   ---   &------111777   1111111111111111111   $$$=---111111------------=$$$  ",
"$$$$$$$$$1111111111111---111111;---------------111---$   111111   111111:------------------.  X$$$--",
"$$$$$$$$$1111111111111---111111;---------------111---$   111111   111111:------------------.  X$$$--",
"$$$$$$$$$1111111111111---111111;---------------111---$   111111   111111:------------------.  X$$$--",
"      $$$1111$$$   111111   ----------------------   +---$$$---1111111111111------      $$$   O---77",
"      $$$1111$$$   111111   ----------------------   +---$$$---1111111111111------      $$$   O---77",
"      $$$1111$$$   111111   ----------------------   +---$$$---1111111111111------      $$$   O---77",
"------777    ---777---   $$$      X$$$   111111111111,----------------------   $$$$$$   ------,777--",
"------777    ---777---   $$$      X$$$   111111111111,----------------------   $$$$$$   ------,777--",
"------777    ---777---   $$$      X$$$   111111111111,----------------------   $$$$$$   ------,777--",
"$$$---:::    $$$:::$$$   $$$ooo.   +++   ;;;===;;;===;,,,$$$***$$$$$$***%$$$   +++$$$+++---,,,1777--",
"   ---                   $$$$$$X         $$$   $$$   %777   $$$      $$$X         $$$------5777777--",
"   ---                   $$$$$$X         $$$   $$$   %777   $$$      $$$X         $$$------5777777--",
"   ---                   $$$$$$X         $$$   $$$   %777   $$$      $$$X         $$$------5777777--",
"                         ------3774------777---   $$$+   ---   $$$   777,---------------------,777--",
"                         ------3774------777---   $$$+   ---   $$$   777,---------------------,777--",
"                         ------3774------777---   $$$+   ---   $$$   777,---------------------,777--",
"         $$$$      $$$         @$$%------      $$$   +------111111----------$$$$$$                  ",
"         $$$$      $$$         @$$%------      $$$   +------111111----------$$$$$$                  ",
"         $$$$      $$$         @$$%------      $$$   +------111111----------$$$$$$                  ",
"      1111111111   $$$---------O         777$$$   -------111------          $$$      111111-------  ",
"      1111111111   $$$---------O         777$$$   -------111------          $$$      111111-------  ",
"      1111111111   $$$---------O         777$$$   -------111------          $$$      111111-------  ",
"---      1111   111111111111$$$X  X---------   $$$1111111$$$111   $$$----------   ------1116772-----",
"---      1111   111111111111$$$X  X---------   $$$1111111$$$111   $$$----------   ------1116772-----",
"---      1111   111111111111$$$X  X---------   $$$1111111$$$111   $$$----------   ------1116772-----",
"---111$$$$$$$      111111---------=   -------------------111111                $$$   ---------:111  ",
"---111$$$$$$$      111111---------=   -------------------111111                $$$   ---------:111  ",
"---111$$$$$$$      111111---------=   -------------------111111                $$$   ---------:111  ",
"---111$$$XXXX%%%%%%::::::---222$OO+%%%%%%,,,,,,----------::::::%%%%%%%%%%%%%,,,$$$+++OOO%%%+OO#***  ",
"---111$$$    ---------------777#  X---$$$111111-----------------------------777$$$$$$   $$$   X$$$  ",
"---111$$$    ---------------777#  X---$$$111111-----------------------------777$$$$$$   $$$   X$$$  ",
"---111$$$    ---------------777#  X---$$$111111-----------------------------777$$$$$$   $$$   X$$$  ",
"777   111----111111------------,111111---------1111111111111111111----------------   $$$   #$$$$$$  ",
"777   111----111111------------,111111---------1111111111111111111----------------   $$$   #$$$$$$  ",
"777   111----111111------------,111111---------1111111111111111111----------------   $$$   #$$$$$$  ",
"   $$$----------111111111   111+  X111111111111      +------777111111----------------111111X      $$",
"   $$$----------111111111   111+  X111111111111      +------777111111----------------111111X      $$",
"   $$$----------111111111   111+  X111111111111      +------777111111----------------111111X      $$",
"   $$$1111111---------   ---   &------111777   1111111111111111111   $$$=---111111------------=$$$  ",
"   $$$1111111---------   ---   &------111777   1111111111111111111   $$$=---111111------------=$$$  ",
"   $$$1111111---------   ---   &------111777   1111111111111111111   $$$=---111111------------=$$$  ",
"$$$$$$$$$1111111111111---111111;---------------111---$   111111   111111:------------------.  X$$$--",
"$$$$$$$$$1111111111111---111111;---------------111---$   111111   111111:------------------.  X$$$--",
"$$$$$$$$$1111111111111---111111;---------------111---$   111111   111111:------------------.  X$$$--",
"      $$$1111$$$   111111   ----------------------   +---$$$---1111111111111------      $$$   O---77",
"      $$$1111$$$   111111   ----------------------   +---$$$---1111111111111------      $$$   O---77",
"      $$$1111$$$   111111   ----------------------   +---$$$---1111111111111------      $$$   O---77",
"======444XXXX===444---XXX###......X$$$...<<<<<<<<<,,,:---===----------------...$$$###   ======:555;;",
"------777    ---777---   $$$      X$$$   111111111111,----------------------   $$$$$$   ------,777--",
"------777    ---777---   $$$      X$$$   111111111111,----------------------   $$$$$$   ------,777--",
"%%%---,,,    %%%,,,%%%   $$$XXX   .+++   :::===:::===;,,,%%%===%%%%%%===&%%%   +++$$$OOO--->,,1777--",
"   ---                   $$$$$$X         $$$   $$$   %777   $$$      $$$X         $$$------5777777--",
"   ---                   $$$$$$X         $$$   $$$   %777   $$$      $$$X         $$$------5777777--",
"   ---                   $$$$$$X         $$$   $$$   %777   $$$      $$$X         $$$------5777777--",
"                         ------3774------777---   $$$+   ---   $$$   777,---------------------,777--",
"                         ------3774------777---   $$$+   ---   $$$   777,---------------------,777--"
};
